<svg width="1058" height="1231" viewBox="0 0 1058 1231" fill="none" xmlns="http://www.w3.org/2000/svg">
<path d="M124.428 1069.06L127.369 1047.62L123.588 1037.96L119.389 1032.92L113.507 1021.57L97.5406 1005.6L112.246 1010.22L127.79 1027.45L126.529 1031.24L131.153 1035.02L133.254 1042.16L142.498 1050.15L145.018 1048.89V1053.51L149.22 1059.81L152.579 1060.23V1063.6L160.565 1075.79L171.068 1083.77L175.27 1095.96L166.447 1090.91L158.883 1080.83L152.163 1077.05L149.222 1067.8L142.079 1062.76L138.717 1054.77L131.155 1050.57L131.99 1060.65L124.428 1069.06ZM898.54 646.07L905.683 649.221L907.363 647.12L910.094 650.062L915.346 650.692L916.816 648.384L917.447 639.137L913.457 638.506L912.617 637.454L914.927 635.983L914.087 634.303L910.937 634.934L904.843 629.471H898.752L895.39 631.573L894.759 636.619L895.597 639.561L898.116 640.398L900.427 643.34L898.54 646.07ZM825.996 562.156L832.234 564.239H836.097L835.501 561.86L837.88 560.076L835.8 558.591L828.671 558.294L825.996 562.156ZM551.293 800.093L561.375 792.108L594.566 783.282L626.496 778.658L644.563 757.646L665.15 738.734L681.114 736.214L684.055 724.868L681.114 713.101L686.574 696.709L690.776 691.247L689.515 684.523L679.434 690.406L672.712 703.435L662.63 713.941L649.605 721.926L645.403 725.706L641.622 721.926L639.102 729.069L629.018 736.635L626.498 733.693L622.717 739.998L609.273 748.402L599.61 749.661L591.627 753.443L592.465 755.964L586.164 758.484L585.743 754.705L582.381 756.806L573.979 759.327L576.08 761.428L568.937 767.733L556.754 766.893L550.872 772.358L547.931 776.98L541.209 780.762L548.771 779.922L542.889 787.067L543.729 791.689L552.552 784.125L544.99 792.95L551.293 800.093ZM739.517 867.333L750.86 861.449L754.638 862.711L755.06 855.987L757.579 852.624V848.844L761.36 838.758L755.899 832.874L749.178 835.394L742.874 841.278L748.756 848.423L742.037 852.624L738.675 859.769L739.517 867.333ZM1024.16 234.638L1014.29 241.152L1010.09 252.079L1015.76 260.695L1013.03 270.782L1006.51 273.724L1005.88 283.599L1009.03 287.381L1001.89 295.154L998.952 300.828L1002.31 311.965L999.795 317.639L999.374 329.197L995.383 333.609L988.24 335.502L984.669 343.066L978.787 347.899L976.895 378.579L977.735 381.73L976.264 390.974L978.154 394.337L972.484 408.625V418.081L977.735 421.444L977.944 430.689L970.592 435.523L973.954 450.441L980.045 457.165L982.149 469.563L988.24 477.127L980.048 490.995L971.858 510.957L935.726 554.032L930.265 569.162L930.686 571.264L924.592 574.627L921.442 581.351L923.962 583.871L925.011 586.392L927.952 585.97L923.962 590.804L928.162 589.755L929.632 594.377L923.541 594.798L926.903 598.373L921.23 606.777V608.458L927.952 611.821L925.432 618.754L919.972 620.855L922.073 624.009L918.922 626.739L907.579 627.372L891.613 623.797L888.463 621.489L894.345 614.555L897.286 614.344V612.032L899.594 611.195L898.545 606.782L900.015 604.049L903.587 601.948L901.067 600.265L900.857 597.535L908.21 592.701L901.279 591.44L895.397 585.137L901.488 586.608L896.446 581.144L898.966 574.629L904.427 579.673L902.747 574.001L906.109 574.841L905.897 572.318L900.646 567.906L898.545 556.138L885.31 560.972L877.958 560.551L871.866 565.385L869.975 568.539L853.799 582.407L851.279 593.334L843.294 605.523L842.456 612.668L829.852 634.519L817.667 649.228L818.928 653.432L811.785 661.836L827.751 653.851L829.01 650.487L871.866 632.837L884.468 645.863L890.35 661.412L892.453 692.932L882.79 703.44L879.849 701.757L877.33 708.481L870.186 712.684L865.144 712.263L860.523 720.248L852.538 724.873L845.397 724.032L839.094 716.047L831.53 715.207L816.406 728.233L815.145 732.015L799.179 747.986L800.44 750.087L786.156 762.695L772.291 770.258L773.971 775.721L774.392 780.345L777.755 779.924L781.954 786.645L776.912 796.732L771.87 797.994L773.55 805.136L764.727 808.5L760.527 814.383L760.946 819.426L724.396 844.643L715.573 861.454L705.489 867.759L700.868 871.96L682.382 882.468L669.778 881.206L668.94 876.584L666.42 880.785L648.353 879.105L646.25 882.468L623.562 894.235L622.303 899.697L611.377 909.784L578.188 919.869L574.407 925.331L537.435 950.127L536.174 969.458L528.612 986.271L518.528 991.314L506.343 983.748L505.503 979.547L498.784 979.126L500.042 974.082L495.843 973.661L492.902 981.646L492.062 976.184L484.909 981.223V975.76L481.549 979.542L480.288 975.76L476.926 979.964L472.305 977.022L470.202 972.819L467.682 978.702L464.741 977.864L462.64 981.644L458.859 979.964V982.905L449.617 982.484L446.676 987.946L442.898 996.772L439.536 993.83L429.452 1002.66V1012.32L430.713 1013.58L431.55 1019.88L428.609 1021.99L430.292 1026.19L435.334 1032.91L438.696 1038.8L432.393 1046.78L429.03 1046.36L428.609 1053.51L426.508 1050.99L423.988 1064.01L420.207 1068.64L410.966 1085.87L413.907 1080.4L420.626 1088.81L421.466 1095.11L405.921 1104.78L409.702 1087.96L405.921 1105.19L402.561 1115.7L388.278 1132.52L379.034 1152.27L366.432 1156.47L365.171 1153.95L360.55 1159.83L349.624 1164.03L348.786 1161.93L342.904 1162.35L337.022 1167.4L316.435 1174.96L307.191 1175.8L295.848 1186.31L273.579 1192.61L248.371 1196.39L221.481 1207.32L213.079 1207.74L202.995 1217.41L192.913 1219.09C192.913 1219.09 184.928 1227.49 183.669 1229.59C182.408 1231.7 156.36 1222.03 156.36 1222.03L138.293 1229.17L121.908 1219.09L113.085 1222.87L85.3554 1216.15L81.1557 1209L72.3327 1210.68L63.0886 1201.44L53.4257 1202.7L38.2995 1187.57L26.5356 1185.89L2.17003 1170.76L0.908936 1162.77L4.05933 1152.9L21.917 1153.95L28.0084 1151L31.5823 1152.68L50.2776 1146.59L71.074 1144.07L87.88 1136.72L111.408 1133.14L111.62 1135.66L115.191 1132.51L120.864 1132.09L122.965 1134.82L128.426 1133.14L136.199 1133.98L143.754 1132.72L151.528 1133.36L155.102 1136.72L169.807 1124.32L170.437 1119.91L174.009 1114.24L179.046 1114.66L181.778 1112.76L188.921 1113.6L200.264 1121.8L233.036 1104.35L236.395 1103.94L238.499 1106.04L246.061 1105.83L252.992 1100.78L257.825 1100.57L262.867 1096.79L265.177 1086.49L268.958 1081.87L272.948 1081.66L286.813 1069.89L292.907 1070.31L298.156 1061.28L313.913 1046.78L330.088 1023.25L332.189 1013.58L346.683 996.35L359.708 975.127L360.338 971.345L369.582 958.528L375.885 945.29L389.96 933.945L398.15 931.212L400.882 927.432L417.897 920.499L420.417 921.758L421.257 919.447L443.945 903.689L456.549 901.587L462.219 897.805L485.326 870.279L483.646 859.774L489.528 862.716L492.678 859.562L490.37 858.512V857.248L492.89 856.827L492.678 853.885L506.962 845.481L512.006 845.06L513.896 841.278L516.418 839.598L517.255 835.394L516.418 832.031L518.098 822.368L522.719 819.426L524.401 813.962L531.963 812.703L531.542 808.5L544.567 800.935L539.525 798.834L540.783 794.631L534.48 792.95L536.584 788.326L529.441 792.108L534.064 783.704L515.578 793.788L520.199 782.442L526.081 782.021L524.822 775.716L535.746 772.774L536.586 762.69L553.811 751.761L558.853 737.892L570.617 731.587L573.558 725.284L590.364 717.718L599.187 707.212L601.29 708.471L630.7 688.719L631.121 685.356L646.247 679.051L649.607 667.284L645.829 663.921L647.087 653.415L662.632 623.157L710.528 583.233L718.09 580.292L727.334 568.946L738.258 566.842L738.679 561.798L750.022 552.552L755.483 543.305L760.527 541.203L758.424 537.84L760.944 518.928L765.988 519.138L769.56 508.42L771.242 508.841L775.021 494.973L773.55 488.249L773.762 483.627L783.634 474.382L797.078 456.101L795.819 450.427L805.273 440.761L810.105 440.342L811.364 435.93L808.004 432.778L810.312 420.802L813.044 417.86L811.783 414.078L815.145 409.244L812.835 403.991L824.389 382.768L837.203 371.001L836.363 368.48L843.085 362.387V360.286L848.336 350.829L850.437 351.248V347.045L857.159 337.17L860.521 323.511L863.041 322.671L861.78 312.793L867.241 307.962L869.344 302.709L865.77 296.825L871.443 284.218L878.586 284.008L877.534 279.596L879.426 269.718L884.887 266.988L885.098 262.154L879.847 258.163L879.638 254.381L889.931 247.236L896.651 235.888L912.196 232.946L911.986 223.911L909.255 220.339L921.44 200.167L921.861 200.798L927.322 161.715L925.221 150.369L927.74 143.645L932.361 141.543L929.841 136.5L932.783 132.718L929.002 130.195L931.105 128.093L926.058 124.742L923.117 118.859L927.319 117.597L921.858 110.873L929.42 100.368L925.218 91.5423L929.42 87.339L928.159 82.7169L951.687 76.8333L955.468 60.4417L965.973 54.1392L989.08 26.4016L999.162 25.5614L997.061 20.518L1015.97 0.765625L1027.73 8.32956L1026.47 18.8353L1047.06 31.4426L1052.94 41.5294L1046.64 46.5729L1055.46 52.4564L1057.14 59.6015L1050.42 63.3834L1048.32 72.6301L1038.66 81.4555L1035.29 93.2226L1042.44 97.8448L1034.87 102.888L1035.29 111.714L1046.22 116.757L1034.88 120.539L1030.25 141.131L1031.93 143.233L1028.15 155.84L1022.69 162.985L1027.74 170.971L1026.48 183.999L1014.29 197.026L1015.13 203.749L1021.01 210.894L1016.81 213.836L1024.16 234.638Z" fill="#C6ECFF" stroke="#0978AB" stroke-linecap="round" stroke-linejoin="round"/>
</svg>
