<svg width="17" height="17" viewBox="0 0 17 17" fill="none" xmlns="http://www.w3.org/2000/svg">
<path d="M9.43916 8.50004L16.8055 1.13366C17.0648 0.874313 17.0648 0.453828 16.8055 0.194512C16.5461 -0.0648042 16.1257 -0.0648374 15.8663 0.194512L8.49998 7.56089L1.13366 0.194512C0.87431 -0.0648374 0.453827 -0.0648374 0.194512 0.194512C-0.064804 0.453862 -0.0648372 0.874346 0.194512 1.13366L7.56083 8.5L0.194512 15.8664C-0.0648372 16.1257 -0.0648372 16.5462 0.194512 16.8055C0.324169 16.9352 0.494136 17 0.664102 17C0.834068 17 1.004 16.9352 1.13369 16.8055L8.49998 9.43919L15.8663 16.8055C15.996 16.9352 16.1659 17 16.3359 17C16.5059 17 16.6758 16.9352 16.8055 16.8055C17.0648 16.5462 17.0648 16.1257 16.8055 15.8664L9.43916 8.50004Z" fill="#515151"/>
</svg>
