<svg width="48" height="48" viewBox="0 0 48 48" fill="none" xmlns="http://www.w3.org/2000/svg">
<g clip-path="url(#clip0)">
<path d="M47.4503 44.7986L33.9079 31.2562C40.0779 23.7492 39.6581 12.6052 32.6469 5.59399C25.1882 -1.86466 13.0522 -1.86466 5.5935 5.59399C-1.86515 13.0527 -1.86515 25.1887 5.5935 32.6473C12.6028 39.6567 23.7454 40.0811 31.2557 33.9084L44.7981 47.4507C45.5304 48.1831 46.7178 48.1831 47.4502 47.4507C48.1826 46.7183 48.1826 45.5309 47.4503 44.7986ZM29.9948 29.9952C23.9985 35.9914 14.2419 35.9913 8.24569 29.9952C2.24944 23.9989 2.24944 14.2423 8.24569 8.24609C14.2418 2.25012 23.9983 2.24965 29.9948 8.24609C35.991 14.2423 35.991 23.9989 29.9948 29.9952Z" fill="#B9DDFF"/>
<path d="M28.3038 17.2448H20.997V9.93788C20.997 8.90213 20.1573 8.0625 19.1216 8.0625C18.0858 8.0625 17.2462 8.90213 17.2462 9.93788V17.2448H9.93934C8.90359 17.2448 8.06396 18.0844 8.06396 19.1201C8.06396 20.1559 8.90359 20.9955 9.93934 20.9955H17.2462V28.3024C17.2462 29.3381 18.0858 30.1778 19.1216 30.1778C20.1573 30.1778 20.997 29.3381 20.997 28.3024V20.9955H28.3038C29.3396 20.9955 30.1792 20.1559 30.1792 19.1201C30.1792 18.0844 29.3396 17.2448 28.3038 17.2448Z" fill="#B9DDFF"/>
</g>
<defs>
<clipPath id="clip0">
<rect width="48" height="48" fill="white"/>
</clipPath>
</defs>
</svg>
